<svg width="214" height="36" viewBox="0 0 214 36" fill="none" xmlns="http://www.w3.org/2000/svg">
<path d="M83.938 3.25276C83.938 2.39011 84.2807 1.5628 84.8907 0.952813C85.5006 0.342829 86.328 0.000142574 87.1907 0.000142574C88.0533 0.000142574 88.8806 0.342829 89.4906 0.952813C90.1006 1.5628 90.4432 2.39011 90.4432 3.25276C90.4118 4.0944 90.0554 4.8911 89.4488 5.47543C88.8423 6.05976 88.0329 6.38623 87.1907 6.38623C86.3485 6.38623 85.539 6.05976 84.9324 5.47543C84.3259 4.8911 83.9694 4.0944 83.938 3.25276Z" fill="#BDBFE7"/>
<path d="M135.258 24.9454C135.258 23.1402 136.712 21.6815 138.504 21.6815C139.369 21.6815 140.198 22.0251 140.81 22.6368C141.422 23.2485 141.765 24.0781 141.765 24.9432C141.765 25.8082 141.422 26.6378 140.81 27.2495C140.198 27.8612 139.369 28.2048 138.504 28.2048C136.714 28.2048 135.258 26.7439 135.258 24.9432" fill="#BDBFE7"/>
<path d="M30.5578 23.534C27.7582 23.534 25.8102 21.3097 25.8102 18.1296C25.8102 14.9517 27.7581 12.7297 30.56 12.7297C33.3755 12.7297 35.3438 14.9517 35.3438 18.1296C35.3438 21.3596 33.4186 23.534 30.5578 23.534ZM30.5578 7.97989C24.6324 7.97989 20.3311 12.2495 20.3311 18.1296C20.3311 24.0119 24.6347 28.2793 30.5578 28.2793C36.5081 28.2793 40.8252 24.0119 40.8252 18.1319C40.8252 12.2495 36.508 7.97989 30.56 7.97989H30.5578ZM77.6391 18.6392C77.4329 18.2404 77.1722 17.8722 76.8645 17.5452L76.6832 17.3572L76.8736 17.176C77.1454 16.8883 77.4239 16.5486 77.6912 16.1545L82.9235 8.38081H76.5724L72.6424 14.4625C72.4204 14.7886 71.972 14.9517 71.2993 14.9517H70.4046V3.45431C70.4046 1.15528 68.9708 0.842707 67.4238 0.842707H64.7736L64.7804 27.9803H70.4068V19.8397H70.9346C71.5756 19.8397 72.0104 19.9145 72.212 20.2633L75.3151 26.1207C76.1826 27.7108 77.0456 27.9803 78.6719 27.9803H82.9824L79.7706 22.671L77.6414 18.6392H77.6391ZM104.951 7.93459C102.088 7.93459 100.262 9.20755 99.2386 10.2834L98.899 10.6277L98.7766 10.1589C98.4776 9.00596 97.4629 8.37401 95.9385 8.37401H93.4174L93.4333 27.9735H99.0212V18.9405C99.0212 18.0571 99.1344 17.2915 99.37 16.5916C99.9906 14.4738 101.726 13.1578 103.893 13.1578C105.637 13.1578 106.319 14.0797 106.319 16.458V24.995C106.319 27.0245 107.259 27.9735 109.291 27.9735H111.95L111.941 15.5067C111.941 10.5553 109.524 7.93685 104.951 7.93685V7.93459ZM87.2588 8.38081H84.6109L84.629 23.5363V27.9803H87.4536L87.5532 27.9848L88.8716 27.9803H90.1808V27.9735H90.1898L90.2011 11.3593C90.2011 9.35478 89.243 8.38307 87.2611 8.38307L87.2588 8.38081ZM52.5038 23.534C49.7042 23.534 47.754 21.3097 47.754 18.1296C47.754 14.9517 49.7043 12.7297 52.5062 12.7297C55.3148 12.7297 57.29 14.9517 57.29 18.1296C57.29 21.3596 55.3647 23.534 52.5062 23.534H52.5038ZM52.5038 7.97989C46.5739 7.97989 42.2703 12.2495 42.2703 18.1296C42.2703 24.0119 46.574 28.2793 52.5062 28.2793C58.4474 28.2793 62.7736 24.0119 62.7736 18.1319C62.7736 12.2495 58.4474 7.97989 52.5062 7.97989" fill="#BDBFE7"/>
<path d="M172.268 23.5338C169.469 23.5338 167.516 21.3095 167.516 18.1293C167.516 14.9515 169.469 12.7295 172.268 12.7295C175.081 12.7295 177.054 14.9515 177.054 18.1293C177.054 21.3593 175.129 23.5338 172.268 23.5338ZM172.268 7.97965C166.338 7.97965 162.037 12.2493 162.037 18.1293C162.037 24.0117 166.338 28.2791 172.268 28.2791C178.212 28.2791 182.536 24.0117 182.536 18.1316C182.536 12.2493 178.21 7.97965 172.268 7.97965Z" fill="#BDBFE7"/>
<path d="M123.722 22.6708C120.666 22.6708 119.579 20.0071 119.579 17.5088C119.579 16.408 119.857 12.8224 123.429 12.8224C125.203 12.8224 127.565 13.3297 127.565 17.6922C127.565 21.8078 125.475 22.6708 123.722 22.6708ZM130.467 8.32851C129.407 8.32851 128.592 8.75207 128.182 9.52446L128.028 9.82344L127.769 9.59694C126.868 8.81776 125.251 7.89135 122.625 7.89135C117.4 7.89135 113.882 11.8167 113.882 17.6537C113.882 23.4885 117.522 27.5656 122.73 27.5656C124.508 27.5656 125.914 27.1488 127.029 26.3062L127.459 25.9823V26.5259C127.459 29.1443 125.767 30.5894 122.698 30.5894C121.205 30.5894 119.848 30.227 118.938 29.8963C117.756 29.5385 117.058 29.8352 116.58 31.0243L116.136 32.1206L115.509 33.7243L115.896 33.9304C117.862 34.9723 120.419 35.5952 122.73 35.5952C127.486 35.5952 133.045 33.1603 133.045 26.3062L133.065 8.32851H130.467Z" fill="#BDBFE7"/>
<path d="M9.75104 23.3097L5.20282 23.3051V17.869C5.20282 16.7048 5.65357 16.1023 6.64792 15.9618H9.75104C11.964 15.9618 13.3955 17.3571 13.3977 19.6154C13.3955 21.9348 12.0002 23.3074 9.75104 23.3074V23.3097ZM5.20282 8.64119V7.20968C5.20282 5.9571 5.73286 5.36139 6.89484 5.28438H9.22334C11.2189 5.28438 12.4148 6.47806 12.4148 8.4781C12.4148 10.0002 11.5948 11.7783 9.29579 11.7783H5.20282V8.64119ZM15.5587 14.0683L14.7364 13.6062L15.4545 12.9924C16.2903 12.2743 17.6878 10.6593 17.6878 7.87333C17.6878 3.60597 14.3808 0.851669 9.25957 0.851669H2.74975C2.01726 0.878376 1.32317 1.18588 0.811238 1.71046C0.29931 2.23504 0.00882094 2.93647 0 3.66939V27.8828H9.375C15.0671 27.8828 18.741 24.7842 18.741 19.9846C18.741 17.4001 17.5542 15.1917 15.5587 14.0683Z" fill="#BDBFE7"/>
<path d="M207.495 8.00018C206.341 8.00443 205.203 8.26778 204.165 8.77077C203.127 9.27377 202.215 10.0036 201.497 10.9062L201.094 11.4181L200.777 10.8451C199.739 8.9583 197.959 8.00018 195.483 8.00018C192.885 8.00018 191.143 9.44982 190.335 10.3105L189.805 10.8836L189.601 10.1293C189.306 9.04211 188.339 8.4464 186.876 8.4464H184.527L184.504 27.9712H189.839V19.3526C189.839 18.5961 189.934 17.8509 190.122 17.0695C190.632 14.9856 192.031 12.7455 194.385 12.9697C195.834 13.1101 196.546 14.2313 196.546 16.3967V27.9712H201.918V19.3526C201.918 18.4081 202.007 17.7014 202.22 16.9947C202.65 15.006 204.113 12.9674 206.383 12.9674C208.027 12.9674 208.634 13.8961 208.634 16.3967V25.1172C208.634 27.0878 209.513 27.9712 211.486 27.9712H213.995L214 15.5066C214 10.5257 211.807 8.00018 207.495 8.00018ZM158.946 21.1918C158.93 21.2122 156.635 23.6313 153.611 23.6313C150.857 23.6313 148.076 21.9416 148.076 18.1703C148.076 14.9131 150.232 12.6367 153.322 12.6367C154.323 12.6367 155.464 12.9946 155.643 13.5994L155.668 13.7013C155.782 14.1177 156.031 14.4847 156.375 14.7456C156.719 15.0065 157.139 15.1466 157.571 15.1442L160.493 15.1487V12.5937C160.493 9.22331 156.205 8.00018 153.322 8.00018C147.152 8.00018 142.676 12.2947 142.676 18.211C142.676 24.1228 147.102 28.4128 153.208 28.4128C158.504 28.4128 161.385 24.9315 161.412 24.8975L161.566 24.7072L159.251 20.8679L158.946 21.1918Z" fill="#BDBFE7"/>
</svg>
