<svg width="127" height="67" viewBox="0 0 127 67" fill="none" xmlns="http://www.w3.org/2000/svg">
<path d="M103.712 37.6397V34.9318H127V40.3475H103.712V37.6397ZM103.712 28.9744V26.2665H127V31.6823H103.712V28.9744ZM103.712 20.3092V17.6013H127V23.0171H103.712V20.3092ZM103.712 11.3731V8.66524H127V14.3518H103.712V11.3731ZM103.712 2.97868V0H127V5.95736H103.712V2.97868Z" fill="#BDBFE7"/>
<path d="M51.7207 37.6397V34.9318H75.0085V40.3476H51.7207V37.6397ZM51.7207 28.9744V26.2666H75.0085V31.6823H51.7207V28.9744ZM51.7207 20.3092V17.6013H75.0085V23.0171H51.7207V20.3092ZM51.7207 11.3732V8.66528H75.0085V14.3519H51.7207V11.3732Z" fill="#BDBFE7"/>
<path d="M77.7166 37.6397V34.9318H101.004V40.3476H77.7166V37.6397ZM77.7166 28.9745V26.2666H101.004V31.6824H77.7166V28.9745Z" fill="#BDBFE7"/>
<path d="M25.9956 63.6353V60.9275H48.7419V66.3432H25.9956V63.6353ZM25.9956 54.6993V51.9914H48.7419V57.4072H25.9956V54.6993ZM25.9956 46.0341V43.3262H48.7419V48.7419H25.9956V46.0341Z" fill="#BDBFE7"/>
<path d="M0 37.6397V34.9318H22.7463V40.3476H0V37.6397ZM0 28.9745V26.2666H22.7463V31.6824H0V28.9745Z" fill="#BDBFE7"/>
<path d="M103.983 63.6353V60.9275H126.729V66.3432H103.983V63.6353ZM103.983 54.6993V51.9914H126.729V57.4072H103.983V54.6993ZM103.983 46.0341V43.3262H126.729V48.7419H103.983V46.0341Z" fill="#BDBFE7"/>
<path d="M77.9873 63.6353V60.9275H100.734V66.3432H77.9873V63.6353ZM77.9873 54.6993V51.9914H100.734V57.4072H77.9873V54.6993ZM77.9873 46.0341V43.3262H100.734V48.7419H77.9873V46.0341Z" fill="#BDBFE7"/>
<path d="M51.9915 63.6353V60.9275H74.7377V66.3432H51.9915V63.6353ZM51.9915 54.6993V51.9914H74.7377V57.4072H51.9915V54.6993ZM51.9915 46.0341V43.3262H74.7377V48.7419H51.9915V46.0341Z" fill="#BDBFE7"/>
<path d="M0 63.6353V60.9275H22.7463V66.3432H0V63.6353ZM0 54.6993V51.9914H22.7463V57.4072H0V54.6993ZM0 46.0341V43.3262H22.7463V48.7419H0V46.0341Z" fill="#BDBFE7"/>
</svg>
