<svg width="214" height="31" viewBox="0 0 214 31" fill="none" xmlns="http://www.w3.org/2000/svg">
<path d="M37.6243 0.718262L30.7891 10.0057H68.0421C69.9259 10.0057 69.9024 10.715 68.9816 11.9693C68.0468 13.2377 66.4824 15.4315 65.5288 16.7234C65.0449 17.3764 64.1711 18.5649 67.0649 18.5649H82.2997L86.8142 12.4297C89.614 8.62924 87.0585 0.722957 77.0476 0.722957L37.6243 0.718262Z" fill="#BDBFE7"/>
<path d="M28.022 30.9763L41.7534 12.317H58.7921C60.6759 12.317 60.6524 13.031 59.7316 14.2806L56.2553 19.0159C55.7715 19.6689 54.8977 20.8574 57.7915 20.8574H80.6131C78.7199 23.46 72.5564 30.9763 61.5074 30.9763H28.022ZM106.653 20.8527L99.2067 30.9763H79.5655L87.0114 20.8527H106.653ZM136.737 18.5602H88.7025L101.837 0.718262H121.469L113.943 10.9499H122.705L130.24 0.718262H149.872L136.737 18.5602ZM135.05 20.8527L127.604 30.9763H107.973L115.419 20.8527H135.05ZM0 24.8458H28.9286L27.3502 26.9927H0V24.8458ZM0 20.8527H31.8694L30.2863 22.9996H0V20.8527ZM0 28.8389H25.9925L24.4188 30.9763H0V28.8389ZM213.949 26.9927H185.123L186.707 24.8458H213.949V26.9927ZM213.949 30.9763H182.197L183.766 28.8389H213.949V30.9763ZM189.643 20.8527H213.949V23.0043H188.064L189.643 20.8527ZM177.062 0.718262L163.927 18.5602H143.121L156.265 0.718262H177.062ZM141.439 20.8527C141.439 20.8527 140.006 22.8164 139.307 23.7559C136.845 27.0913 139.02 30.9716 147.067 30.9716H178.598L186.044 20.8527H141.439Z" fill="#BDBFE7"/>
</svg>
