<svg width="56" height="84" viewBox="0 0 56 84" fill="none" xmlns="http://www.w3.org/2000/svg">
<path d="M14 84C21.728 84 28 77.728 28 70V56H14C6.272 56 0 62.272 0 70C0 77.728 6.272 84 14 84Z" fill="#BDBFE7"/>
<path d="M0 42C0 34.272 6.272 28 14 28H28V56H14C6.272 56 0 49.728 0 42Z" fill="#BDBFE7"/>
<path d="M0 14C0 6.272 6.272 0 14 0H28V28H14C6.272 28 0 21.728 0 14Z" fill="#BDBFE7"/>
<path d="M28 0H42C49.728 0 56 6.272 56 14C56 21.728 49.728 28 42 28H28V0Z" fill="#BDBFE7"/>
<path d="M56 42C56 49.728 49.728 56 42 56C34.272 56 28 49.728 28 42C28 34.272 34.272 28 42 28C49.728 28 56 34.272 56 42Z" fill="#BDBFE7"/>
</svg>
