<svg width="70" height="70" viewBox="0 0 70 70" fill="none" xmlns="http://www.w3.org/2000/svg">
<circle cx="35" cy="35" r="35" fill="#4E93D1" fill-opacity="0.25"/>
<path d="M55 27.8126C55 26.2751 53.975 25.2501 52.4375 25.2501H16.5625C15.025 25.2501 14 26.2751 14 27.8126V43.1876C14 44.7251 15.025 45.7501 16.5625 45.7501H52.4375C53.975 45.7501 55 44.7251 55 43.1876V27.8126ZM52.4375 43.1876H16.5625V27.8126H52.4375V43.1876Z" fill="#4E93D1"/>
<path d="M29.375 35.5C29.375 36.1796 29.105 36.8314 28.6245 37.312C28.1439 37.7925 27.4921 38.0625 26.8125 38.0625C26.1329 38.0625 25.4811 37.7925 25.0005 37.312C24.52 36.8314 24.25 36.1796 24.25 35.5C24.25 34.8204 24.52 34.1686 25.0005 33.688C25.4811 33.2075 26.1329 32.9375 26.8125 32.9375C27.4921 32.9375 28.1439 33.2075 28.6245 33.688C29.105 34.1686 29.375 34.8204 29.375 35.5Z" fill="#4E93D1"/>
<path d="M37.0625 35.5C37.0625 36.1796 36.7925 36.8314 36.312 37.312C35.8314 37.7925 35.1796 38.0625 34.5 38.0625C33.8204 38.0625 33.1686 37.7925 32.688 37.312C32.2075 36.8314 31.9375 36.1796 31.9375 35.5C31.9375 34.8204 32.2075 34.1686 32.688 33.688C33.1686 33.2075 33.8204 32.9375 34.5 32.9375C35.1796 32.9375 35.8314 33.2075 36.312 33.688C36.7925 34.1686 37.0625 34.8204 37.0625 35.5Z" fill="#4E93D1"/>
<path d="M44.75 35.5C44.75 36.1796 44.48 36.8314 43.9995 37.312C43.5189 37.7925 42.8671 38.0625 42.1875 38.0625C41.5079 38.0625 40.8561 37.7925 40.3755 37.312C39.895 36.8314 39.625 36.1796 39.625 35.5C39.625 34.8204 39.895 34.1686 40.3755 33.688C40.8561 33.2075 41.5079 32.9375 42.1875 32.9375C42.8671 32.9375 43.5189 33.2075 43.9995 33.688C44.48 34.1686 44.75 34.8204 44.75 35.5Z" fill="#4E93D1"/>
<path d="M14 15L53.0476 54.0476" stroke="#4E93D1" stroke-width="4" stroke-linecap="round"/>
</svg>
