<svg width="70" height="70" viewBox="0 0 70 70" fill="none" xmlns="http://www.w3.org/2000/svg">
<circle cx="35" cy="35" r="35" fill="#4ED1BA" fill-opacity="0.25"/>
<path d="M27.0454 25.3183V20.6591C27.0454 19.4235 27.5363 18.2384 28.41 17.3646C29.2838 16.4909 30.4689 16 31.7046 16H50.3411C51.5768 16 52.7619 16.4909 53.6356 17.3646C54.5094 18.2384 55.0003 19.4235 55.0003 20.6591V48.614C55.0003 49.8497 54.5094 51.0348 53.6356 51.9085C52.7619 52.7823 51.5768 53.2732 50.3411 53.2732H32.6364C30.0634 53.2732 27.0454 51.187 27.0454 48.614V43.9549" stroke="#4ED1BA" stroke-width="3" stroke-linecap="round" stroke-linejoin="round"/>
<path d="M38.228 43.9549L47.5463 34.6366L38.228 25.3184" stroke="#4ED1BA" stroke-width="3" stroke-linecap="round" stroke-linejoin="round"/>
<path d="M14 34.6365H45.6822" stroke="#4ED1BA" stroke-width="3" stroke-linecap="round" stroke-linejoin="round"/>
</svg>
