<svg width="70" height="70" viewBox="0 0 70 70" fill="none" xmlns="http://www.w3.org/2000/svg">
<circle cx="35" cy="35" r="35" fill="#D14E4E" fill-opacity="0.25"/>
<path d="M26.2668 23.594C26.2668 24.5314 26.2668 25.4401 26.5625 26.2911C23.4543 29.9401 15.2476 39.5819 14.4832 40.3174C14.3312 40.4537 14.2097 40.6205 14.1265 40.8069C14.0432 40.9932 14.0001 41.195 14 41.3992C14 42.0121 14.375 42.6035 14.6923 42.9352C15.1683 43.4328 17.2019 45.315 17.5769 44.9544C18.6875 43.8727 18.9111 43.5842 19.3654 43.1371C20.0505 42.4665 19.2933 41.0963 19.5312 40.541C19.7692 39.9857 20.0216 39.8775 20.4327 39.791C20.8437 39.7045 21.5721 40.0001 22.1418 40.0073C22.7404 40.0145 23.0649 39.7621 23.512 39.3439C23.8726 39.0121 24.1322 38.7021 24.1394 38.2189C24.1538 37.5698 23.2163 36.7117 23.9159 36.0266C24.6154 35.3415 25.625 36.4737 26.3678 36.3872C27.1106 36.3006 28.012 35.2694 28.1058 34.8295C28.1995 34.3896 27.262 33.2574 27.4062 32.6155C27.4567 32.3992 27.8966 31.8944 28.2284 31.8223C28.5601 31.7502 30.0312 32.3199 30.363 32.2478C30.7668 32.1612 31.2356 31.7357 31.6178 31.4978C32.7356 31.9809 33.7524 32.1756 35.0577 32.1756C39.9976 32.1756 44 28.3247 44 23.5795C44 18.8344 39.9976 15 35.0577 15C30.1178 15 26.2668 18.8488 26.2668 23.594ZM39.3846 21.923C39.3846 22.3795 39.2493 22.8256 38.9957 23.2051C38.7421 23.5846 38.3817 23.8804 37.96 24.0551C37.5384 24.2297 37.0744 24.2754 36.6267 24.1864C36.1791 24.0973 35.7679 23.8776 35.4451 23.5548C35.1224 23.2321 34.9026 22.8209 34.8136 22.3733C34.7245 21.9256 34.7702 21.4616 34.9449 21.0399C35.1196 20.6183 35.4153 20.2578 35.7948 20.0043C36.1743 19.7507 36.6205 19.6154 37.0769 19.6154C37.689 19.6154 38.2759 19.8585 38.7087 20.2913C39.1415 20.724 39.3846 21.311 39.3846 21.923Z" stroke="#D14E4E" stroke-width="2" stroke-linejoin="round"/>
<path d="M42.7332 47.406C42.7332 46.4686 42.7332 45.5599 42.4375 44.7089C45.5457 41.0599 53.7524 31.4181 54.5168 30.6826C54.6688 30.5463 54.7903 30.3795 54.8735 30.1931C54.9568 30.0068 54.9999 29.805 55 29.6008C55 28.9879 54.625 28.3965 54.3077 28.0648C53.8317 27.5672 51.7981 25.685 51.4231 26.0456C50.3125 27.1273 50.0889 27.4158 49.6346 27.8629C48.9495 28.5335 49.7067 29.9037 49.4688 30.459C49.2308 31.0143 48.9784 31.1225 48.5673 31.209C48.1563 31.2956 47.4279 30.9999 46.8582 30.9927C46.2596 30.9855 45.9351 31.2379 45.488 31.6561C45.1274 31.9879 44.8678 32.2979 44.8606 32.7811C44.8462 33.4302 45.7837 34.2883 45.0841 34.9734C44.3846 35.6585 43.375 34.5263 42.6322 34.6128C41.8894 34.6994 40.988 35.7306 40.8942 36.1705C40.8005 36.6104 41.738 37.7426 41.5938 38.3845C41.5433 38.6008 41.1034 39.1056 40.7716 39.1777C40.4399 39.2498 38.9688 38.6801 38.637 38.7522C38.2332 38.8388 37.7644 39.2643 37.3822 39.5022C36.2644 39.0191 35.2476 38.8244 33.9423 38.8244C29.0024 38.8244 25 42.6753 25 47.4205C25 52.1656 29.0024 56 33.9423 56C38.8822 56 42.7332 52.1512 42.7332 47.406ZM29.6154 49.077C29.6154 48.6205 29.7507 48.1744 30.0043 47.7949C30.2579 47.4154 30.6183 47.1196 31.04 46.9449C31.4616 46.7703 31.9256 46.7246 32.3733 46.8136C32.8209 46.9027 33.2321 47.1224 33.5549 47.4452C33.8776 47.7679 34.0974 48.1791 34.1864 48.6267C34.2755 49.0744 34.2298 49.5384 34.0551 49.9601C33.8804 50.3817 33.5847 50.7421 33.2052 50.9957C32.8257 51.2493 32.3795 51.3846 31.9231 51.3846C31.311 51.3846 30.7241 51.1415 30.2913 50.7087C29.8585 50.276 29.6154 49.689 29.6154 49.077Z" stroke="#D14E4E" stroke-width="2" stroke-linejoin="round"/>
</svg>
