<svg width="156" height="56" viewBox="0 0 156 56" fill="none" xmlns="http://www.w3.org/2000/svg">
<path fill-rule="evenodd" clip-rule="evenodd" d="M89.6785 29.3641H91.3412C91.3412 31.2039 91.648 33.3265 92.0862 34.9244C92.5019 36.3927 93.5735 37.7711 94.5155 38.822C96.2673 40.8356 99.3318 41.9738 102.681 41.9738C105.089 41.9738 107.322 41.1424 108.81 39.9394C110.386 38.6466 111.393 36.7859 111.393 34.5528C111.393 32.6921 110.606 30.9853 109.555 29.9119C108.481 28.8403 106.14 27.2631 103.425 26.2122L99.5272 24.724C96.244 23.4545 93.3549 21.5057 91.9099 19.7107C90.465 17.8941 89.5022 15.2445 89.5022 12.6397C89.5022 8.93999 91.012 5.91953 93.5727 3.73047C96.1351 1.56302 100.25 0.403227 105.089 0.403227C110.582 0.403227 114.392 1.32275 118.091 3.64317V13.2092H116.604C116.604 12.4651 116.408 11.7202 116.408 11.3485C116.408 10.8015 116.232 10.232 116.232 9.86035C116.232 9.48788 115.859 9.11542 115.859 8.74378C115.487 7.82426 114.919 6.6204 114.196 5.59196C112.423 2.9872 109.359 1.51979 106.009 1.51979C103.797 1.51979 101.631 2.22066 100.25 3.35884C98.7615 4.5627 98.0406 6.5331 98.0406 8.56919C98.0406 10.2328 98.5877 11.8091 99.528 12.8384C100.535 13.955 102.659 15.1372 105.263 16.1873L108.81 17.6547C112.466 19.1429 115.487 21.0917 117.151 22.865C118.924 24.7257 119.931 27.3088 119.931 30.2852C119.931 34.0074 118.442 37.3779 115.487 39.5686C112.554 41.7577 108.437 43.0921 103.425 43.0921C100.995 43.0921 97.733 42.6323 94.1431 41.9747C92.8735 41.7568 91.1874 41.3395 89.6776 40.7051V29.3641H89.6785ZM125.287 29.3641H126.95C126.95 31.2039 127.257 33.3265 127.695 34.9244C128.111 36.3927 129.184 37.7711 130.124 38.822C131.876 40.8356 134.94 41.9738 138.29 41.9738C140.698 41.9738 142.931 41.1424 144.418 39.9394C145.995 38.6466 147.002 36.7859 147.002 34.5528C147.002 32.6921 146.214 30.9853 145.163 29.9119C144.09 28.8403 141.749 27.2631 139.033 26.2122L135.136 24.724C131.853 23.4545 128.964 21.5057 127.519 19.7107C126.074 17.8941 125.111 15.2445 125.111 12.6397C125.111 8.93999 126.621 5.91953 129.183 3.73047C131.744 1.56302 135.858 0.403227 140.698 0.403227C146.193 0.403227 150 1.32275 153.702 3.64317V13.2092H152.213C152.213 12.4651 152.016 11.7202 152.016 11.3485C152.016 10.8015 151.841 10.232 151.841 9.86035C151.841 9.48788 151.468 9.11542 151.468 8.74378C151.096 7.82426 150.527 6.6204 149.805 5.59196C148.032 2.9872 144.966 1.51979 141.617 1.51979C139.406 1.51979 137.239 2.22066 135.859 3.35884C134.372 4.5627 133.649 6.5331 133.649 8.56919C133.649 10.2328 134.196 11.8091 135.137 12.8384C136.145 13.955 138.268 15.1372 140.872 16.1873L144.418 17.6547C148.075 19.1429 151.095 21.0917 152.76 22.865C154.533 24.7257 155.54 27.3088 155.54 30.2852C155.54 34.0074 154.051 37.3779 151.095 39.5686C148.163 41.7577 144.046 43.0921 139.033 43.0921C136.604 43.0921 133.342 42.6323 129.752 41.9747C128.482 41.7568 126.796 41.3395 125.286 40.7051V29.3641H125.287ZM62.9408 0C68.5012 0 73.3391 1.66362 76.8633 4.64168C81.5042 8.34139 83.9127 14.295 83.9127 22.0885C83.9127 25.0657 83.3657 27.8459 82.6216 30.4507C81.6796 33.0338 80.2139 35.4632 78.5278 37.1276C74.8272 41.0252 69.4423 43.0596 62.3713 43.0596C55.8914 43.0596 50.681 41.2006 47.1567 37.4993C43.4354 33.7771 41.5964 28.2176 41.5964 21.3436C41.5964 14.6666 43.4346 9.45629 47.1567 5.75741C50.8789 2.03608 56.2638 0 62.9408 0ZM62.9624 1.11657C59.2411 1.11657 56.2638 3.1302 54.4248 6.85153C52.9366 10.0042 51.973 15.0391 51.973 21.3436C51.973 28.2176 52.9366 33.3847 54.4248 36.5365C56.0884 40.0832 58.847 41.9214 62.3929 41.9214C69.8364 41.9214 73.5136 35.0915 73.5136 21.6944C73.5136 14.6459 72.5941 9.4355 70.9305 6.28285C70.1856 4.79382 68.872 3.52429 67.3838 2.5607C65.9388 1.64201 64.2311 1.11657 62.7421 1.11657H62.9624ZM23.2051 21.3793C27.2989 21.3793 30.824 22.298 33.0347 24.1595C35.2678 25.8448 36.3844 28.4287 36.3844 31.5806C36.3844 33.4412 35.8365 35.3027 35.0924 36.7917C34.1512 38.2791 32.663 39.7681 30.9986 40.5122C29.3965 41.1757 27.7092 41.6109 25.9861 41.805C24.1254 42.1767 21.3452 42.3521 18.018 42.3521H0V41.2347H4.44464V1.89641H0V0.779845H17.6447C20.2278 0.779845 22.658 0.955275 24.4971 1.15232C27.6713 1.52478 30.2545 2.6189 32.1151 4.30497C33.9758 5.96859 34.8953 8.37631 34.8953 11.1789C34.8953 14.8786 33.2317 17.6588 30.0791 19.3441C28.59 20.0882 26.1823 20.8331 23.008 21.0077L23.2051 21.3793ZM14.1204 41.2347H16.9231C18.7613 41.2347 20.2503 41.061 21.3452 40.8415C22.5108 40.4708 23.5445 39.7716 24.3225 38.8278C25.6361 37.1634 26.381 34.7556 26.381 31.7776C26.381 28.6258 25.6361 25.9986 24.3225 24.5104C23.5784 23.7654 22.6597 23.0213 21.5647 22.6713C20.4257 22.2772 18.5875 21.9272 16.7044 21.9272H14.1213V41.2347H14.1204ZM14.1204 20.8323H16.7036C19.3308 20.8323 21.5639 20.0873 22.8334 18.5991C24.147 17.1109 24.8911 14.7024 24.8911 11.3311C24.8911 8.74794 24.3216 6.34022 23.4021 4.85119C22.8334 3.71301 21.9139 2.96891 20.9944 2.61807C19.8562 2.22398 18.1926 1.87396 16.3535 1.87396H14.1204V20.8323ZM0.581145 55.139V49.8846H1.23712V52.0736H3.99569V49.8846H4.65249V55.139H3.99569V52.6872H1.23712V55.139H0.581145ZM23.5443 49.8846H24.2011V52.9275C24.2011 53.4537 24.1354 53.8902 24.0265 54.1762C23.8949 54.4895 23.6642 54.7509 23.3697 54.9203C23.0629 55.1165 22.6472 55.2271 22.1442 55.2271C21.6628 55.2271 21.2463 55.1398 20.9404 54.9852C20.645 54.8168 20.4139 54.5551 20.2836 54.2411C20.2068 54.0668 20.155 53.8827 20.1297 53.694C20.1024 53.4394 20.0877 53.1835 20.0857 52.9275V49.8846H20.7425V52.9275C20.7425 53.3872 20.7865 53.7381 20.8522 53.9343C20.9395 54.1538 21.0933 54.3292 21.312 54.4373C21.5315 54.5478 21.7942 54.6127 22.0785 54.6127C22.604 54.6127 22.9756 54.5038 23.1951 54.2843C23.4138 54.0648 23.5451 53.5843 23.5451 52.9266V49.8846H23.5443ZM42.0204 53.0804V52.4685H44.2319V54.4173C43.8819 54.68 43.531 54.8979 43.181 55.0292C42.831 55.1606 42.4361 55.2271 42.0644 55.2271C41.5873 55.2314 41.1155 55.1265 40.6852 54.9203C40.2804 54.7128 39.9512 54.3833 39.744 53.9783C39.5229 53.5451 39.4102 53.0647 39.4156 52.5783C39.4156 52.0736 39.5254 51.5922 39.7224 51.1541C39.9411 50.7159 40.2478 50.3875 40.6419 50.1681C41.036 49.9502 41.4958 49.8397 42.0212 49.8397C42.3937 49.8397 42.7437 49.9062 43.0496 50.0151C43.3564 50.1464 43.5975 50.3219 43.7505 50.5414C43.9259 50.7592 44.0573 51.0443 44.1446 51.3935L43.5319 51.5482C43.4662 51.3079 43.3573 51.0884 43.2475 50.9571C43.1378 50.8257 42.9632 50.6943 42.7445 50.6062C42.5157 50.5095 42.2704 50.4576 42.022 50.4532C41.7153 50.4532 41.4309 50.4973 41.2123 50.5846C40.9952 50.6711 40.8005 50.8055 40.6428 50.9778C40.5057 51.1344 40.3948 51.3122 40.3144 51.5041C40.1819 51.831 40.1149 52.1807 40.1173 52.5334C40.1173 52.9915 40.2046 53.3856 40.3368 53.6932C40.4906 54 40.7309 54.2619 41.0368 54.3932C41.3428 54.5246 41.6936 54.6127 42.0437 54.6127C42.328 54.6127 42.6348 54.5479 42.8975 54.4597C43.1818 54.3491 43.4229 54.197 43.5759 54.0648V53.0788H42.0204V53.0804ZM59.2926 52.5999C59.2926 51.746 59.5337 51.0668 59.971 50.5863C60.4308 50.104 61.0444 49.8413 61.7876 49.8413C62.2698 49.8413 62.7072 49.9727 63.0796 50.1922C63.4521 50.4117 63.758 50.7608 63.9551 51.1549C64.1737 51.5498 64.2835 52.0304 64.2835 52.5567C64.2835 53.0813 64.1737 53.5635 63.9551 53.9584C63.7364 54.3741 63.4296 54.7025 63.0572 54.8987C62.6631 55.1182 62.2258 55.2279 61.7876 55.2279C61.3265 55.2291 60.8732 55.1081 60.474 54.8771C60.0868 54.658 59.78 54.3205 59.5986 53.9143C59.3994 53.5123 59.2945 53.0702 59.2918 52.6215V52.5999H59.2926ZM59.9935 52.6207C59.9935 53.2342 60.1681 53.7148 60.4965 54.0656C60.8249 54.4165 61.2622 54.6127 61.766 54.6127C62.2915 54.6127 62.7296 54.4373 63.0572 54.0881C63.4072 53.7372 63.5826 53.211 63.5826 52.555C63.5826 52.1393 63.4953 51.7677 63.364 51.4609C63.2326 51.1541 62.9915 50.8905 62.7296 50.7159C62.4669 50.5422 62.1385 50.4549 61.7876 50.4549C61.3063 50.4549 60.8689 50.6303 60.5181 50.9579C60.1672 51.2855 59.9935 51.8558 59.9935 52.6207ZM91.293 55.139V49.8846H93.2418C93.6367 49.8846 93.9643 49.9511 94.1838 50.0392C94.4241 50.1481 94.6203 50.3235 94.7525 50.5422C94.8838 50.76 94.972 51.0227 94.972 51.2422C94.972 51.4617 94.9071 51.702 94.7965 51.8774C94.6497 52.088 94.4548 52.2604 94.2279 52.3804C94.533 52.4677 94.7965 52.6207 94.972 52.8402C95.1474 53.0597 95.2347 53.3432 95.2347 53.6275C95.2347 53.8694 95.1682 54.1097 95.08 54.3059C94.9987 54.5016 94.8712 54.6748 94.7084 54.8106C94.5554 54.9195 94.3368 55.0068 94.1173 55.0508C93.8978 55.0949 93.5927 55.1381 93.2634 55.1381H91.293V55.139ZM91.949 52.1177H93.0872C93.394 52.1177 93.6359 52.0969 93.7656 52.0736C93.9282 52.0317 94.0692 51.9302 94.1605 51.7893C94.2094 51.7314 94.2469 51.6648 94.2711 51.5931C94.2919 51.5058 94.3135 51.4176 94.3135 51.3303C94.3135 51.1549 94.2711 51.0019 94.1838 50.8706C94.0965 50.7392 93.9643 50.6303 93.8105 50.5863C93.6575 50.5422 93.374 50.499 93.0015 50.499H91.949V52.1177ZM91.949 54.5254H93.2626C93.4821 54.5254 93.6575 54.5046 93.7448 54.5046C93.8978 54.4822 94.0516 54.4173 94.1397 54.3733C94.2643 54.3138 94.3646 54.2135 94.4241 54.0889C94.4889 53.9576 94.533 53.8029 94.533 53.6275C94.533 53.4537 94.4681 53.2783 94.38 53.1469C94.2919 53.0156 94.1173 52.8842 93.9419 52.8402C93.7664 52.7753 93.4821 52.7312 93.1753 52.7312H91.949V54.5254ZM110.951 52.5999C110.951 51.746 111.191 51.0668 111.629 50.5863C112.089 50.104 112.702 49.8413 113.446 49.8413C113.929 49.8413 114.365 49.9727 114.738 50.1922C115.111 50.4117 115.416 50.7608 115.615 51.1549C115.834 51.5498 115.943 52.0304 115.943 52.5567C115.943 53.0813 115.834 53.5635 115.615 53.9584C115.395 54.3741 115.088 54.7025 114.717 54.8987C114.322 55.1182 113.885 55.2279 113.447 55.2279C112.986 55.2291 112.533 55.1081 112.134 54.8771C111.747 54.6577 111.44 54.3204 111.258 53.9143C111.059 53.5121 110.954 53.0701 110.951 52.6215V52.5999H110.951ZM111.652 52.6207C111.652 53.2342 111.826 53.7148 112.155 54.0656C112.484 54.4165 112.922 54.6127 113.423 54.6127C113.949 54.6127 114.388 54.4373 114.716 54.0881C115.067 53.7372 115.242 53.211 115.242 52.555C115.242 52.1393 115.155 51.7677 115.023 51.4609C114.891 51.1541 114.651 50.8905 114.388 50.7159C114.125 50.5422 113.796 50.4549 113.446 50.4549C112.965 50.4549 112.527 50.6303 112.176 50.9579C111.825 51.2855 111.652 51.8558 111.652 52.6207ZM131.55 53.4745L132.208 53.4305C132.228 53.6707 132.317 53.8902 132.404 54.044C132.513 54.2195 132.711 54.3724 132.951 54.4597C133.06 54.5038 133.191 54.5686 133.323 54.5686C133.454 54.5911 133.607 54.6127 133.738 54.6127C134.001 54.6127 134.241 54.5686 134.44 54.5038C134.636 54.4373 134.812 54.3284 134.9 54.197C134.988 54.0656 135.053 53.8902 135.053 53.7372C135.053 53.5843 135.009 53.4305 134.921 53.3215C134.834 53.1902 134.66 53.0796 134.441 52.9923C134.137 52.9003 133.83 52.8202 133.52 52.752C133.04 52.6431 132.668 52.5118 132.493 52.4236C132.251 52.2923 132.055 52.1168 131.946 51.9431C131.829 51.7439 131.768 51.5165 131.77 51.2854C131.77 51.0227 131.858 50.7825 131.99 50.563C132.122 50.3435 132.361 50.1473 132.625 50.0384C132.928 49.9035 133.256 49.836 133.588 49.8405C133.959 49.8405 134.31 49.907 134.595 50.0159C134.901 50.1473 135.142 50.3443 135.273 50.5863C135.442 50.8223 135.534 51.1049 135.536 51.3952L134.878 51.4617C134.857 51.1333 134.725 50.8706 134.529 50.7168C134.331 50.543 134.003 50.4557 133.609 50.4557C133.215 50.4557 132.886 50.543 132.712 50.6752C132.537 50.8282 132.426 51.0244 132.426 51.2439C132.426 51.4193 132.493 51.5947 132.624 51.7036C132.756 51.8142 133.105 51.9456 133.652 52.0753C134.199 52.2066 134.594 52.3172 134.812 52.4045C135.119 52.5359 135.359 52.7329 135.491 52.9516C135.535 53.038 135.6 53.1694 135.644 53.28C135.688 53.4113 135.71 53.5427 135.71 53.6732C135.71 53.9359 135.623 54.2219 135.468 54.4622C135.301 54.7122 135.065 54.9095 134.79 55.0309C134.464 55.1658 134.115 55.2331 133.762 55.2288C133.303 55.2288 132.885 55.1623 132.58 55.0309C132.278 54.9028 132.019 54.6904 131.835 54.419C131.745 54.2821 131.671 54.135 131.616 53.9808C131.572 53.8157 131.55 53.6454 131.55 53.4745ZM151.384 53.4745L152.041 53.4305C152.062 53.6707 152.15 53.8902 152.238 54.044C152.347 54.2195 152.544 54.3724 152.785 54.4597C152.894 54.5038 153.025 54.5686 153.156 54.5686C153.288 54.5911 153.441 54.6127 153.572 54.6127C153.835 54.6127 154.075 54.5686 154.274 54.5038C154.47 54.4373 154.645 54.3284 154.733 54.197C154.822 54.0656 154.886 53.8902 154.886 53.7372C154.886 53.5843 154.842 53.4305 154.755 53.3215C154.668 53.1902 154.494 53.0796 154.275 52.9923C153.971 52.9003 153.664 52.8202 153.354 52.752C152.874 52.6431 152.502 52.5118 152.327 52.4236C152.086 52.2923 151.888 52.1168 151.78 51.9431C151.663 51.7436 151.603 51.5164 151.604 51.2854C151.604 51.0227 151.691 50.7825 151.824 50.563C151.956 50.3435 152.195 50.1473 152.459 50.0384C152.762 49.9035 153.09 49.836 153.422 49.8405C153.793 49.8405 154.144 49.907 154.428 50.0159C154.735 50.1473 154.975 50.3443 155.107 50.5863C155.276 50.8223 155.368 51.1049 155.37 51.3952L154.712 51.4617C154.691 51.1333 154.559 50.8706 154.363 50.7168C154.165 50.543 153.836 50.4557 153.442 50.4557C153.049 50.4557 152.72 50.543 152.546 50.6752C152.371 50.8282 152.262 51.0244 152.262 51.2439C152.262 51.4193 152.327 51.5947 152.458 51.7036C152.589 51.8142 152.938 51.9456 153.486 52.0753C154.033 52.2066 154.428 52.3172 154.646 52.4045C154.953 52.5359 155.193 52.7329 155.325 52.9516C155.369 53.038 155.434 53.1694 155.478 53.28C155.522 53.4113 155.544 53.5427 155.544 53.6732C155.544 53.9359 155.457 54.2219 155.302 54.4622C155.134 54.7122 154.899 54.9095 154.624 55.0309C154.298 55.1658 153.949 55.2331 153.596 55.2288C153.136 55.2288 152.719 55.1623 152.414 55.0309C152.112 54.903 151.854 54.6905 151.67 54.419C151.58 54.2821 151.506 54.135 151.45 53.9808C151.405 53.8159 151.383 53.6455 151.384 53.4745Z" fill="#BDBFE7"/>
</svg>
