<svg width="159" height="38" viewBox="0 0 159 38" fill="none" xmlns="http://www.w3.org/2000/svg">
<path d="M47.623 11.6245L47.6777 14.0308C48.2246 13.1375 48.9082 12.4676 49.7285 12.021C50.5488 11.5744 51.4603 11.3511 52.4629 11.3511C54.7962 11.3511 56.2773 12.3081 56.9062 14.2222C57.4349 13.3016 58.1413 12.5952 59.0254 12.103C59.9095 11.6017 60.8848 11.3511 61.9512 11.3511C65.123 11.3511 66.7409 13.0828 66.8047 16.5464V26.4175H65.1641V16.6694C65.1549 15.3478 64.8678 14.368 64.3027 13.73C63.7467 13.092 62.8353 12.7729 61.5684 12.7729C60.3926 12.7912 59.3991 13.174 58.5879 13.9214C57.7767 14.6597 57.3255 15.562 57.2344 16.6284V26.4175H55.5938V16.5464C55.5846 15.2795 55.2839 14.3361 54.6914 13.7163C54.1081 13.0874 53.2057 12.7729 51.9844 12.7729C50.9544 12.7729 50.0703 13.0692 49.332 13.6616C48.5938 14.245 48.0469 15.1154 47.6914 16.2729V26.4175H46.0508V11.6245H47.623ZM72.793 26.4175H71.1523V11.6245H72.793V26.4175ZM70.8652 7.34521C70.8652 7.03532 70.9655 6.77555 71.166 6.56592C71.3665 6.34717 71.64 6.23779 71.9863 6.23779C72.3327 6.23779 72.6061 6.34717 72.8066 6.56592C73.0163 6.77555 73.1211 7.03532 73.1211 7.34521C73.1211 7.65511 73.0163 7.91488 72.8066 8.12451C72.6061 8.33415 72.3327 8.43896 71.9863 8.43896C71.64 8.43896 71.3665 8.33415 71.166 8.12451C70.9655 7.91488 70.8652 7.65511 70.8652 7.34521ZM82.7188 25.3101C83.8581 25.3101 84.8105 24.991 85.5762 24.353C86.3509 23.7059 86.7702 22.8719 86.834 21.8511H88.4062C88.3607 22.7534 88.0781 23.5783 87.5586 24.3257C87.0391 25.064 86.3464 25.6427 85.4805 26.062C84.6237 26.4813 83.7031 26.6909 82.7188 26.6909C80.7773 26.6909 79.237 26.0164 78.0977 24.6675C76.9674 23.3185 76.4023 21.5047 76.4023 19.2261V18.7339C76.4023 17.2756 76.6576 15.9858 77.168 14.8647C77.6784 13.7437 78.4076 12.8778 79.3555 12.2671C80.3125 11.6564 81.429 11.3511 82.7051 11.3511C84.3275 11.3511 85.6628 11.8341 86.7109 12.8003C87.7682 13.7664 88.3333 15.0379 88.4062 16.6147H86.834C86.7611 15.4572 86.3418 14.5229 85.5762 13.812C84.8197 13.1011 83.8626 12.7456 82.7051 12.7456C81.2285 12.7456 80.0801 13.2788 79.2598 14.3452C78.4486 15.4116 78.043 16.9064 78.043 18.8296V19.3081C78.043 21.1948 78.4486 22.6668 79.2598 23.7241C80.0801 24.7814 81.2331 25.3101 82.7188 25.3101ZM98.5234 13.019C98.1771 12.9552 97.8079 12.9233 97.416 12.9233C96.3952 12.9233 95.5293 13.2104 94.8184 13.7847C94.1165 14.3498 93.6152 15.1746 93.3145 16.2593V26.4175H91.6875V11.6245H93.2871L93.3145 13.9761C94.1803 12.2261 95.5703 11.3511 97.4844 11.3511C97.9401 11.3511 98.3001 11.4103 98.5645 11.5288L98.5234 13.019ZM99.9453 18.8022C99.9453 17.3804 100.219 16.0998 100.766 14.9604C101.322 13.8211 102.101 12.937 103.104 12.3081C104.115 11.6701 105.259 11.3511 106.535 11.3511C108.504 11.3511 110.099 12.0438 111.32 13.4292C112.542 14.8055 113.152 16.633 113.152 18.9116V19.2534C113.152 20.6844 112.874 21.9741 112.318 23.1226C111.771 24.2619 110.997 25.1414 109.994 25.7612C108.992 26.381 107.848 26.6909 106.562 26.6909C104.603 26.6909 103.008 26.0028 101.777 24.6265C100.556 23.241 99.9453 21.409 99.9453 19.1304V18.8022ZM101.586 19.2534C101.586 21.0216 102.042 22.4754 102.953 23.6147C103.874 24.745 105.077 25.3101 106.562 25.3101C108.039 25.3101 109.233 24.745 110.145 23.6147C111.065 22.4754 111.525 20.9761 111.525 19.1167V18.8022C111.525 17.672 111.316 16.6375 110.896 15.6987C110.477 14.7599 109.889 14.0353 109.133 13.5249C108.376 13.0054 107.51 12.7456 106.535 12.7456C105.077 12.7456 103.887 13.3198 102.967 14.4683C102.046 15.6076 101.586 17.1024 101.586 18.9526V19.2534ZM127.576 21.7827H119.865L118.252 26.4175H114.656L122.176 6.51123H125.279L132.812 26.4175H129.203L127.576 21.7827ZM120.836 18.9937H126.605L123.721 10.7358L120.836 18.9937ZM138.541 19.021V26.4175H135.082V6.51123H142.697C144.921 6.51123 146.685 7.09001 147.988 8.24756C149.301 9.40511 149.957 10.9364 149.957 12.8413C149.957 14.7918 149.314 16.3094 148.029 17.394C146.753 18.4787 144.962 19.021 142.656 19.021H138.541ZM138.541 16.2456H142.697C143.928 16.2456 144.867 15.9585 145.514 15.3843C146.161 14.8009 146.484 13.9624 146.484 12.8687C146.484 11.7931 146.156 10.9364 145.5 10.2983C144.844 9.6512 143.941 9.31852 142.793 9.30029H138.541V16.2456ZM156.205 26.4175H152.883V11.6245H156.205V26.4175ZM152.678 7.78271C152.678 7.2723 152.837 6.84847 153.156 6.51123C153.484 6.17399 153.949 6.00537 154.551 6.00537C155.152 6.00537 155.617 6.17399 155.945 6.51123C156.273 6.84847 156.438 7.2723 156.438 7.78271C156.438 8.28402 156.273 8.70329 155.945 9.04053C155.617 9.36865 155.152 9.53271 154.551 9.53271C153.949 9.53271 153.484 9.36865 153.156 9.04053C152.837 8.70329 152.678 8.28402 152.678 7.78271Z" fill="white"/>
<path d="M15 5.48544L2.5 12.5243L15 19.5631L27.5 12.5243L15 5.48544Z" stroke="white" stroke-width="2" stroke-linecap="round" stroke-linejoin="round"/>
<path d="M2.5 26.6019L15 33.6408L27.5 26.6019" stroke="white" stroke-width="2" stroke-linecap="round" stroke-linejoin="round"/>
<path d="M2.5 19.5631L15 26.6019L27.5 19.5631" stroke="white" stroke-width="2" stroke-linecap="round" stroke-linejoin="round"/>
</svg>
