<svg width="146" height="77" viewBox="0 0 146 77" fill="none" xmlns="http://www.w3.org/2000/svg">
<path fill-rule="evenodd" clip-rule="evenodd" d="M24.4722 46.6945C23.3112 46.6945 22.4023 47.5067 22.4023 48.6919C22.4023 49.8778 23.3159 50.6853 24.4722 50.6853C25.6277 50.6853 26.5421 49.8723 26.5421 48.6919C26.5421 47.5067 25.6324 46.6945 24.4722 46.6945ZM24.4722 50.1142C23.6444 50.1142 23.0303 49.5095 23.0303 48.6919C23.0303 47.875 23.6397 47.2656 24.4722 47.2656C25.2945 47.2656 25.9132 47.8843 25.9132 48.6919C25.9132 49.4947 25.2891 50.1142 24.4722 50.1142ZM44.6136 39.7084H34.537L35.6824 22.194L29.1387 39.7084H19.7815L34.6283 0.12085H44.5847L43.4354 17.8755L50.1032 0.12085H59.4611L44.6136 39.7084ZM45.8291 39.7084L60.6751 0.12085H70.0323L55.1863 39.7084H45.8291Z" fill="#BDBFE7"/>
<path fill-rule="evenodd" clip-rule="evenodd" d="M18.7025 26.0632C5.6268 41.4187 -6.7077 61.8503 4.18729 71.259C14.7444 80.3766 27.9403 74.9783 36.9378 71.3791C45.9353 67.78 145.384 24.5933 145.384 24.5933C146.344 24.1134 146.165 23.5134 144.965 23.813C144.481 23.934 36.6983 53.1438 36.6983 53.1438C23.021 56.9833 7.42599 48.6154 18.7025 26.0632Z" fill="#BDBFE7"/>
<path fill-rule="evenodd" clip-rule="evenodd" d="M24.825 48.8324C25.1152 48.8184 25.3423 48.6686 25.3423 48.2667C25.3423 47.7487 25.0036 47.6184 24.438 47.6184H23.625V49.7663H24.1673V48.8519H24.2585L24.7524 49.7663H25.3758L24.825 48.8324ZM24.477 48.4844H24.168V47.9859H24.4286C24.5886 47.9859 24.7719 48.0046 24.7719 48.2129C24.7719 48.436 24.6658 48.4844 24.477 48.4844ZM118.534 0C117.373 0 116.464 0.812987 116.464 1.99736C116.464 3.18251 117.379 3.99004 118.534 3.99004C119.69 3.99004 120.604 3.17705 120.604 1.99736C120.605 0.812987 119.696 0 118.534 0ZM118.534 3.42048C117.706 3.42048 117.092 2.81581 117.092 1.99814C117.092 1.18125 117.702 0.5719 118.534 0.5719C119.356 0.5719 119.976 1.19062 119.976 1.99814C119.976 2.80099 119.352 3.42048 118.534 3.42048Z" fill="#BDBFE7"/>
<path fill-rule="evenodd" clip-rule="evenodd" d="M118.887 2.13772C119.178 2.12367 119.406 1.97387 119.406 1.57206C119.406 1.05399 119.066 0.923695 118.501 0.923695H117.688V3.07086H118.23V2.15722H118.322L118.815 3.07086H119.439L118.887 2.13772ZM118.539 1.78974H118.23V1.29118H118.491C118.65 1.29118 118.834 1.31068 118.834 1.519C118.834 1.74137 118.728 1.78974 118.539 1.78974ZM112.369 6.71917L114.883 0.12085H86.332L76.5286 11.9974L81.0546 0.12085H71.5773L56.8499 39.7084H66.207L72.4948 23.1537L72.9255 39.7084L101.637 39.646L104.37 32.0311H93.4539L97.0405 22.4344H106.037L108.805 15.0566H99.8088L102.893 6.71917H112.369ZM82.2086 37.0689L81.6086 16.436L95.7563 0.902629L82.2086 37.0689Z" fill="#BDBFE7"/>
</svg>
