<svg width="263" height="37" viewBox="0 0 263 37" fill="none" xmlns="http://www.w3.org/2000/svg">
<path d="M15.3658 0.00218804C15.1179 0.0140981 14.8771 0.0770958 14.6448 0.225501C15.6009 0.416688 16.7212 0.545191 17.3247 1.4165C17.6272 1.73776 17.533 2.2314 17.2305 2.51348C16.6587 3.19517 15.6767 3.40908 14.8369 3.19125C11.9893 2.51896 9.29627 1.21199 6.37048 0.871932C4.80338 0.665074 3.27153 1.41885 2.19023 2.50956C1.19198 3.51094 0.829036 5.03103 1.02665 6.40382C1.24745 7.48983 2.05232 8.61814 3.21668 8.77799C2.52715 8.02891 2.3963 6.72821 3.1109 5.94936C3.51521 5.44789 4.23373 5.37893 4.8308 5.47139C7.0984 5.89294 9.30802 6.57542 11.5694 7.03458C12.8356 7.37934 14.0869 7.79071 15.3813 8.02578C15.4049 9.57251 15.4049 11.1177 15.3813 12.6644C14.5461 13.2881 13.7484 13.9596 12.9288 14.6037C13.7265 15.2008 14.5492 15.7602 15.3737 16.3197C15.427 18.5074 15.3658 20.6944 15.405 22.882C14.0557 23.9241 12.2479 24.0933 10.6057 23.9006C8.8614 23.8036 7.3131 22.7644 6.17068 21.5029C8.08584 20.4811 10.0377 19.5174 11.9966 18.5804C12.0653 15.131 12.0089 11.6803 12.0277 8.2295C9.57992 9.25595 7.15717 10.3373 4.71719 11.3794C5.42238 9.57564 6.85691 8.11432 8.56835 7.24614C8.12157 7.27278 7.653 7.23987 7.23631 7.43419C4.03314 8.69885 1.39335 11.417 0.399962 14.733C-0.264491 16.8392 -0.0505814 19.1419 0.670288 21.2012C1.56354 23.4923 3.21605 25.5203 5.40687 26.6783C6.6372 27.3145 7.96141 27.9106 9.37181 27.928C12.2913 28.1709 15.3627 27.0694 17.3327 24.8722C18.1929 23.9492 18.6264 22.7458 19.0526 21.5813C19.4477 20.4343 19.6262 19.2134 19.5854 18.0004C18.6405 19.8747 17.3836 21.6352 15.6677 22.878C15.6785 20.6982 15.6637 18.5191 15.6714 16.3393C16.4175 15.7704 17.1664 15.2023 17.8889 14.6037C17.1476 13.9471 16.4111 13.2913 15.6714 12.6331C15.6747 11.1004 15.6683 9.56468 15.6714 8.03361C17.3404 7.94585 19.2609 7.06514 19.7106 5.31468C20.0241 4.17226 20.1878 2.81906 19.4873 1.78477C18.8432 1.05137 18.008 0.414337 17.027 0.237254C16.4838 0.189771 15.911 -0.0238259 15.3658 0.00218804ZM7.55757 10.5136C7.5513 13.8358 7.57716 17.1581 7.54581 20.4805C6.99106 20.6983 6.44555 20.9365 5.90035 21.1777C4.89427 19.722 4.26899 18.0082 3.98065 16.2688C3.90229 14.8004 4.17497 13.3132 4.68584 11.9357C5.65118 11.4765 6.59536 10.9806 7.55757 10.5136ZM198.972 0.00218804C198.703 -0.00596091 198.44 0.0468506 198.192 0.225501C198.757 0.355571 199.353 0.411203 199.881 0.676044C200.351 0.901707 200.662 1.36871 200.825 1.85137C200.913 2.37322 200.53 2.85432 200.073 3.05021C199.252 3.42945 198.32 3.25394 197.483 3.0267C195.477 2.4124 193.524 1.61788 191.477 1.13834C190.426 0.914244 189.323 0.702685 188.261 0.98163C187.109 1.30602 185.94 1.85764 185.26 2.88567C184.382 4.01868 184.272 5.57717 184.7 6.90921C185.052 7.79776 185.767 8.67142 186.776 8.78582C186.447 8.3627 185.88 7.93567 186.043 7.33233C186.134 6.7337 186.382 6.12644 186.862 5.7378C187.342 5.3758 187.998 5.3805 188.555 5.54191C190.595 5.92115 192.587 6.49393 194.604 6.9719C195.97 7.26181 197.283 7.7719 198.659 8.02578C198.682 9.56624 198.664 11.1067 198.67 12.6487C197.931 13.3022 197.191 13.9549 196.461 14.6194C197.197 15.1882 197.92 15.7712 198.666 16.3275C198.677 18.5201 198.663 20.7154 198.678 22.9094C197.384 23.8793 195.68 24.1184 194.11 23.9004C192.375 23.797 190.858 22.7534 189.706 21.5186C190.178 21.1893 190.717 20.9779 191.227 20.7115C192.659 20.0063 194.073 19.2682 195.517 18.5881C195.562 15.1357 195.522 11.6818 195.536 8.2295C193.104 9.26536 190.691 10.3498 188.249 11.3637C188.807 10.0395 189.699 8.82813 190.897 8.01794C191.256 7.69041 191.62 7.34722 192.112 7.23439C191.62 7.26886 191.11 7.25241 190.662 7.48121C187.223 8.8728 184.289 11.9083 183.642 15.638C183.396 17.5311 183.572 19.497 184.233 21.2913C185.081 23.3975 186.574 25.2687 188.515 26.4628C189.445 27.0285 190.443 27.4838 191.485 27.7986C193.98 28.2139 196.656 27.855 198.839 26.5292C200.279 25.5247 201.616 24.2225 202.22 22.5331C202.867 21.0992 203.127 19.5329 203.16 17.9689C202.859 18.3623 202.683 18.83 202.427 19.25C201.598 20.6416 200.525 21.9023 199.219 22.8661C199.234 20.68 199.199 18.4939 199.238 16.3078C199.978 15.7734 200.672 15.1779 201.416 14.6466C200.73 13.9352 199.951 13.3209 199.222 12.6564C199.208 11.1238 199.24 9.58959 199.207 8.05696C200.641 7.9645 202.091 7.3212 202.862 6.06282C203.664 4.76995 203.66 3.00853 202.885 1.70626C202.276 0.900767 201.317 0.382055 200.327 0.23318C199.883 0.197136 199.42 0.0159786 198.972 0.00218804ZM191.101 10.5096C191.12 13.8256 191.101 17.1409 191.109 20.4569C190.543 20.6935 189.984 20.9434 189.42 21.1816C188.602 20.0314 187.965 18.7377 187.638 17.3618C187.276 15.5596 187.371 13.6062 188.21 11.9435C189.181 11.4797 190.139 10.9939 191.101 10.5096ZM74.5537 1.107C75.4877 2.74306 74.9032 4.96051 73.4975 6.13898C72.634 6.70157 71.6405 7.01186 70.6673 7.32685C70.6893 14.0184 70.6706 20.7115 70.6736 27.4031C70.7425 27.7086 70.462 27.9482 70.1738 27.8262C69.6048 27.7995 69.4544 27.1993 69.213 26.795C65.7121 20.3573 62.249 13.8977 58.7197 7.47415C58.6523 12.199 58.7181 16.9285 58.6868 21.6547C60.3542 21.9699 61.9777 22.7738 63.0684 24.0996C63.5746 23.7078 63.9021 23.0183 64.5509 22.86C64.3864 23.1593 64.1466 23.4052 63.9178 23.6561C62.6563 25.0524 61.3979 26.455 60.1379 27.8544C59.5535 27.1178 58.7747 26.4189 57.7998 26.3186C57.1588 26.2935 56.4178 26.3265 55.9506 26.8326C55.4131 27.3122 55.0528 28.1208 55.4366 28.8056C55.8864 29.7882 57.0178 30.0546 57.9706 30.2897C56.7796 30.5247 55.4462 30.3868 54.4855 29.5892C53.7208 28.9357 53.0264 28.1065 52.8275 27.0943C52.5596 25.6996 52.9764 24.1496 54.0185 23.1607C55.158 22.034 56.8283 21.614 58.3923 21.7033C58.4346 19.644 58.4158 17.585 58.4017 15.5258C57.6417 15.4051 56.6058 15.5133 56.2517 16.3078C56.0464 16.9519 56.5292 17.4941 57.007 17.8467C56.4146 17.7432 55.7564 17.6304 55.3286 17.1713C54.824 16.5491 54.4322 15.8141 54.2865 15.0212C54.1408 14.001 54.4087 12.8382 55.2581 12.1816C56.1467 11.4936 57.3298 11.3996 58.4143 11.4247V7.07125C58.0209 6.48045 57.6432 5.80346 56.968 5.49788C56.5261 5.31452 55.9494 5.24871 55.5686 5.59347C55.042 6.04009 54.9149 6.74999 54.7066 7.37214C54.5045 5.85361 54.6565 4.13136 55.7206 2.94036C57.0056 1.27609 59.7245 1.21497 61.1302 2.75387C61.7383 3.37915 62.1551 4.15016 62.569 4.91021C65.1704 9.54258 67.7201 14.2047 70.3481 18.8214C70.3638 14.993 70.3716 11.1616 70.345 7.33296C69.8935 7.15744 69.3906 7.16214 68.9313 7.0023C68.0756 6.77664 67.3626 6.22501 66.7295 5.62795C66.3346 6.09181 65.9364 6.55411 65.5683 7.03834C65.4821 6.99133 65.3113 6.89887 65.2252 6.85186C66.5729 5.15311 68.0176 3.53116 69.4204 1.87629C70.1553 2.65044 71.1146 3.28355 72.2083 3.35407C73.3502 3.22259 74.4738 2.30897 74.5537 1.107ZM162.033 4.81321C163.913 3.58773 165.791 2.35128 167.678 1.13521C167.693 8.36584 167.664 15.598 167.693 22.8287C168.101 23.3834 168.657 23.8395 169.151 24.327C169.461 23.9948 169.784 23.6766 170.104 23.3554C170.179 23.4304 170.329 23.581 170.406 23.6547C168.9 24.9599 167.441 26.3155 165.926 27.6069C164.971 26.6275 163.984 25.6825 163.038 24.6982C162.613 25.0759 162.224 25.4898 161.825 25.8925C161.743 25.8298 161.58 25.7027 161.499 25.6402C162.221 24.9491 162.995 24.316 163.726 23.6312C163.719 18.151 163.73 12.6708 163.719 7.19223C163.702 6.16719 163.18 4.94014 162.033 4.81321ZM21.6153 5.02633C23.2341 3.81966 24.8216 2.56911 26.442 1.36714C26.4498 5.35072 26.4404 9.33588 26.4467 13.321C27.8179 12.1896 29.1999 11.0722 30.5571 9.92511C31.6462 11.055 32.6632 12.2554 33.7853 13.3492C34.2587 13.0092 34.7444 12.6864 35.2411 12.3823C35.152 13.0139 34.3965 13.2301 34.0047 13.6705C34.0094 15.8488 34.0047 18.0255 34.0063 20.2038C34.0376 21.8321 33.8025 23.4492 33.7541 25.0759C33.6803 26.8405 32.9956 28.6444 31.6197 29.8023C30.5006 30.8023 28.9713 31.1625 27.5123 31.2832C27.4872 31.3177 27.434 31.3882 27.4073 31.4241L27.4465 31.2957C26.9435 31.2957 26.442 31.2769 25.9405 31.2393C26.5707 30.9134 27.2835 30.7049 27.7803 30.1659C28.3507 29.5295 29.0152 28.9231 29.2957 28.091C29.7549 26.8217 29.769 25.4536 29.8144 24.1215C29.8019 21.1362 29.8285 18.1493 29.8003 15.1655C29.1358 14.2989 28.3398 13.5342 27.6346 12.6973C27.2491 13.1095 26.7869 13.4558 26.4561 13.9134C26.4295 16.9943 26.453 20.0768 26.4451 23.1576C26.8449 23.5558 27.2428 23.957 27.6455 24.3519C27.9685 24.0275 28.2912 23.7015 28.614 23.3756C28.6862 23.4461 28.8287 23.5871 28.9008 23.6577C27.3337 24.8831 25.7824 26.1276 24.2153 27.3513C23.2233 26.4706 22.2548 25.5648 21.2785 24.6669C20.951 24.9114 20.6235 25.159 20.2944 25.4017C20.224 25.328 20.086 25.1807 20.0156 25.1071C20.7678 24.6228 21.5059 24.1168 22.2503 23.623C22.2487 18.1444 22.2487 12.6674 22.2503 7.18878C22.2345 6.77037 22.255 6.31904 22.034 5.94607C21.8881 5.66085 21.5592 5.56996 21.313 5.39758C21.258 5.21595 21.5181 5.13916 21.6153 5.02633ZM129.549 2.11778C128.076 3.31035 126.636 4.53975 125.177 5.74955C125.161 4.6087 125.197 3.4702 125.157 2.32934C124.932 2.31837 124.832 2.42023 124.864 2.63493C124.856 10.6993 124.866 18.7628 124.86 26.8271C124.064 26.675 123.266 26.5161 122.478 26.3374C122.465 19.5362 122.477 12.7363 122.474 5.93369C122.457 5.07335 122.178 4.2083 121.612 3.55169C120.907 2.71642 119.804 2.32856 118.74 2.2549C117.479 2.21886 116.322 2.88175 115.441 3.73582C114.631 4.50527 114.197 5.6947 114.427 6.79951C114.525 6.11469 114.749 5.34289 115.379 4.96208C116.07 4.66747 116.991 4.90488 117.404 5.55367C117.758 6.07708 117.794 6.73135 117.808 7.34408C117.811 9.1823 117.806 11.0205 117.808 12.8603C116.595 12.8791 115.162 13.075 114.462 14.2002C113.757 15.0809 113.539 16.3299 114.023 17.3657C114.341 18.3906 115.407 18.9189 116.397 19.0817C115.842 18.723 115.278 18.0915 115.606 17.3892C116.046 16.684 117.047 16.5806 117.792 16.7859C117.822 20.0485 117.807 23.3098 117.8 26.5725C116.687 26.961 115.604 27.6358 115.01 28.6842C114.578 29.4317 114.567 30.3257 114.603 31.1641C114.736 32.6341 115.706 33.9761 117.008 34.647C117.992 35.1077 119.1 35.1218 120.166 35.0858C123.19 34.9057 126.064 33.7052 129.095 33.605C129.997 33.5375 130.526 34.5351 130.289 35.3171C130.109 36.0239 129.517 36.5018 128.957 36.9156C130.021 36.6899 131.081 36.2903 131.911 35.5677C132.849 34.7733 133.28 33.492 133.22 32.2885C133.15 31.0975 132.189 30.2113 131.191 29.6989C129.876 28.9278 128.288 29.0996 126.842 29.2563C124.125 29.5697 121.476 30.4324 118.732 30.5061C117.802 30.5688 116.933 29.9098 116.746 28.9977C116.536 28.1188 117.25 27.3498 117.972 26.9723C119.536 26.2341 121.336 26.5075 122.967 26.8508C124.859 27.0484 126.634 27.8201 128.527 28.0144C129.602 28.1366 130.743 27.9299 131.626 27.278C132.535 26.717 132.944 25.6238 132.969 24.5943C132.98 18.1755 132.958 11.7572 132.981 5.3385C133.567 4.82919 134.214 4.37238 134.725 3.78315C134.01 3.96023 133.562 4.63017 132.977 5.04075C131.822 4.0798 130.692 3.09409 129.549 2.11778ZM126.344 5.36169C127.002 5.92585 127.65 6.50098 128.307 7.06984C128.309 9.09141 128.302 11.113 128.307 13.1345C127.995 13.4417 127.654 13.7661 127.198 13.8241C126.456 13.9808 125.732 13.6133 125.173 13.1541C125.176 10.7941 125.174 8.43479 125.173 6.07473C125.565 5.83966 125.956 5.6046 126.344 5.36169ZM125.173 13.7144C126.135 14.2033 127.373 14.3514 128.307 13.7183C128.304 14.635 128.304 15.5557 128.307 16.4725C127.928 16.1026 127.441 15.8088 126.897 15.8104C126.257 15.7963 125.67 16.0979 125.173 16.4725C125.176 15.5542 125.171 14.6343 125.173 13.7144ZM126.889 16.1003C127.509 16.116 127.986 16.579 128.307 17.068C128.303 19.6271 128.309 22.1877 128.307 24.7468C128.357 25.5319 127.817 26.2034 127.226 26.6548C126.656 27.1077 125.881 27.1233 125.189 27.0857C125.15 23.7431 125.187 20.3951 125.173 17.0523C125.621 16.5649 126.188 16.0909 126.889 16.1003ZM204.039 6.28942C205.054 5.3993 206.01 4.44337 207.048 3.57833C207.926 4.50449 208.85 5.3852 209.742 6.29726C208.671 7.29864 207.595 8.29218 206.51 9.27789C205.691 8.27651 204.848 7.29864 204.039 6.28942ZM86.8352 7.24222C87.4698 6.80657 88.2722 6.83321 89.0058 6.73918C88.4526 7.1764 87.8383 7.68415 87.7629 8.43793C87.6391 9.11178 88.0655 9.71825 88.5623 10.1226C89.4665 10.8466 90.6277 11.2509 91.3643 12.1786C91.7184 12.6268 91.9331 13.1941 91.9174 13.7692C91.9127 16.8094 91.9206 19.848 91.9127 22.8867C92.7212 23.5401 93.5331 24.1858 94.34 24.8393C94.5751 24.6873 94.8102 24.5354 95.047 24.3832C95.036 21.0657 95.064 17.7465 95.0327 14.4305C94.6176 13.94 94.0424 13.589 93.5675 13.1518C94.7334 12.0783 95.8758 10.9766 97.0652 9.92981C98.0995 10.9453 99.1871 11.9059 100.248 12.8932C99.8453 13.3193 99.4309 13.7342 99.0053 14.1375C98.9975 17.0539 99.0053 19.9703 99.0006 22.8867C100.06 23.7078 101.119 24.5305 102.19 25.3392C102.34 25.2513 102.492 25.1652 102.647 25.079C102.632 21.5172 102.649 17.9565 102.638 14.3945C102.147 13.9761 101.64 13.5765 101.155 13.1502C102.299 12.0689 103.457 11.0064 104.608 9.93295C105.753 10.8293 106.9 11.7257 108.04 12.6299C108.435 12.1943 108.839 11.7618 109.29 11.381C109.348 11.464 109.467 11.6317 109.525 11.7147C108.55 12.5829 107.582 13.4621 106.637 14.3632C106.555 17.2028 106.635 20.0518 106.598 22.8929C104.117 24.5227 101.527 26.01 99.0099 27.5958C97.6824 26.6446 96.3928 25.6416 95.0825 24.6685C93.9072 25.6134 92.7303 26.5599 91.5471 27.4955C91.3779 27.6836 91.2039 27.4093 91.0645 27.331C89.9579 26.4424 88.858 25.5459 87.7375 24.6779C87.2674 25.0883 86.7739 25.4722 86.3022 25.8828C86.227 25.8107 86.0797 25.6681 86.0044 25.5976C86.5796 25.1997 87.1422 24.7811 87.7173 24.3831C87.7206 21.6297 87.7206 18.8778 87.7173 16.1244C87.7157 15.3879 87.4571 14.6419 86.9541 14.0966C86.4009 13.4964 85.6565 13.0748 85.2162 12.3712C84.7288 11.5532 84.6849 10.5393 84.8714 9.62548C85.1442 8.59307 85.964 7.80638 86.8352 7.24222ZM261.245 9.20894C261.358 9.49729 261.394 9.81933 261.253 10.1061C260.906 10.8975 259.963 11.2015 259.161 11.1874C258.321 11.1122 257.665 10.5081 257.1 9.93765C256.15 10.5739 255.196 11.2054 254.248 11.8417C253.154 12.5782 251.946 13.122 250.733 13.6282C250.729 15.1859 250.735 16.7405 250.73 18.2982C251.615 19.0363 252.526 19.7415 253.394 20.4999C252.728 21.2051 252.071 21.9204 251.443 22.6585C250.797 23.4358 250.187 24.3337 250.15 25.3776C250.112 26.5637 250.62 27.8481 251.67 28.4764C252.134 28.749 252.698 28.9919 253.237 28.7819C252.566 28.5422 251.741 28.0564 251.799 27.2383C251.986 26.4642 252.905 25.9463 253.668 26.1688C254.459 26.3945 255.113 26.9602 255.619 27.5949C257.653 26.1296 259.795 24.8203 262.021 23.6653C262.004 21.6894 262.048 19.7084 262.001 17.7338C261.018 17.0443 260.081 16.2929 259.11 15.5908C260.138 14.2886 261.172 12.9111 261.601 11.2813C261.761 10.5935 261.815 9.72609 261.245 9.20894ZM254.694 12.1708C255.354 13.1189 256.228 14.0411 257.425 14.2354C258.618 14.516 259.773 13.8695 260.555 13.0092C259.485 14.9884 257.825 16.5775 256.109 18.0004C255.645 17.5083 255.146 17.05 254.687 16.5548C254.705 15.0942 254.69 13.6313 254.694 12.1708ZM256.375 18.0788C256.889 18.5113 257.397 18.9515 257.911 19.3873C258.146 19.5283 258.031 19.823 258.064 20.0455C258.049 21.7427 258.085 23.4453 258.044 25.1425C257.66 24.2742 257.085 23.4665 256.273 22.9523C255.096 22.183 253.478 22.1384 252.281 22.8857C251.732 23.1896 251.294 23.6434 250.878 24.1041C251.472 22.9445 252.432 22.0293 253.335 21.1108C254.366 20.1176 255.397 19.1256 256.375 18.0788ZM44.7607 9.93373C43.4067 10.7173 42.0983 11.5721 40.7726 12.398C39.6488 12.9841 38.5073 13.5373 37.3757 14.1062C37.3804 17.2795 37.3712 20.4529 37.3837 23.6263C36.901 24.001 36.3375 24.2704 35.8987 24.7C35.9833 24.7499 36.151 24.852 36.2356 24.9037C36.6149 24.5761 36.99 24.2424 37.407 23.9634C38.8096 25.1292 40.1332 26.3916 41.5324 27.5638C41.6012 27.528 41.7401 27.4551 41.8106 27.4189C44.1799 25.5822 46.5738 23.773 48.9447 21.9379L48.6509 21.6793C47.3314 22.7074 46.0479 23.7896 44.7409 24.8332C43.6612 23.8615 42.6167 22.8515 41.5401 21.8752C41.1734 21.6073 41.3787 21.0987 41.3521 20.7195C43.5633 19.1007 45.7754 17.4811 47.9535 15.8184C46.8661 13.8687 45.8138 11.902 44.7607 9.93373ZM41.3444 12.2726C42.4633 14.1109 43.5877 15.9428 44.6941 17.7889C43.5689 18.5802 42.4531 19.381 41.3406 20.1865C41.3295 17.5491 41.324 14.9101 41.3444 12.2726ZM81.4075 9.92981C80.4531 10.5582 79.4925 11.1788 78.5162 11.7712C77.0887 12.6644 75.5412 13.3367 74.046 14.1062C74.0507 17.278 74.0374 20.4506 74.0499 23.6224C73.5893 23.9656 73.08 24.2375 72.6317 24.5979C72.6787 24.681 72.7766 24.8479 72.8237 24.9309C73.3204 24.5971 73.8109 24.2547 74.3202 23.9397C75.6037 25.1668 76.906 26.3752 78.1988 27.5913C80.617 25.7952 82.9895 23.9352 85.3842 22.1064C85.6913 22.0437 85.439 21.5454 85.2431 21.738C83.9456 22.744 82.6866 23.8018 81.4076 24.833C80.4047 23.8379 79.4088 22.8382 78.4105 21.8398C78.0876 21.5562 78.2789 21.0829 78.2617 20.7115C80.3898 19.1319 82.4521 17.4621 84.5849 15.8887C83.6022 13.8672 82.4527 11.9216 81.4075 9.92981ZM78.2341 12.3353C79.3311 14.1218 80.3364 15.9679 81.3487 17.8045C80.3035 18.5708 79.2935 19.3842 78.2574 20.163C78.209 17.5554 78.2576 14.9446 78.2341 12.3353ZM143.222 9.93765C142.175 10.5473 141.142 11.1757 140.127 11.8338C138.935 12.561 137.631 13.0773 136.362 13.6478C136.392 16.9763 136.371 20.3056 136.374 23.6343C135.949 24.0573 135.521 24.479 135.108 24.9114C135.195 24.9067 135.367 24.8941 135.453 24.888C135.754 24.5666 136.068 24.2532 136.378 23.9397C137.802 25.1057 139.206 26.2968 140.621 27.4737C140.854 27.6992 141.118 27.3632 141.346 27.2816C143.621 26.0373 145.771 24.5713 148.115 23.4539C148.151 20.3526 148.126 17.2521 148.131 14.1492C148.554 13.7261 148.983 13.3046 149.397 12.8721C149.314 12.8736 149.148 12.8807 149.064 12.8838C148.669 13.2082 148.269 13.524 147.872 13.8437C146.321 12.543 144.777 11.2321 143.222 9.93765ZM140.57 12.2374C141.689 13.2889 142.828 14.3248 143.947 15.3794C143.936 18.6813 143.939 21.9816 143.939 25.2835C142.792 24.2775 141.703 23.2104 140.57 22.1885L140.57 12.2374Z" fill="#BDBFE7"/>
<path d="M167.873 17.3343C169.487 14.8567 171.136 12.401 172.791 9.94848C173.508 10.5573 174.392 10.9343 175.328 11.0298C176.243 11.0314 177.024 10.4876 177.713 9.94378C177.539 11.2805 177.094 12.669 176.068 13.5983C175.173 14.4194 173.816 14.6169 172.689 14.2157C172.025 13.9901 171.41 13.6359 170.86 13.2018C170.763 13.4306 170.683 13.6672 170.625 13.9086C172.916 17.3593 175.167 20.8414 177.417 24.3204C177.934 23.9851 178.387 23.5618 178.843 23.1498C178.932 23.206 179.109 23.319 179.199 23.3753C177.58 24.8186 175.91 26.2039 174.25 27.6018C172.117 24.1841 170.031 20.7364 167.873 17.3343ZM245.382 9.93359C244.385 10.5401 243.384 11.1458 242.4 11.771C241.039 12.7176 239.477 13.3068 238.032 14.106C238.048 17.2778 238.032 20.452 238.04 23.6223C237.541 23.9514 237.05 24.2866 236.551 24.6096C236.615 24.6879 236.745 24.8485 236.81 24.9269C237.239 24.6088 237.627 24.2311 238.091 23.9553C239.384 25.1573 240.736 26.2942 242.048 27.4774C242.173 27.6779 242.356 27.4727 242.483 27.3912C244.846 25.5702 247.215 23.7602 249.582 21.9455C249.304 21.4597 248.989 21.9306 248.712 22.1296C247.601 23.034 246.492 23.9373 245.378 24.8368C244.239 23.7978 243.138 22.7204 241.977 21.7063C241.959 21.3801 241.958 21.0532 241.973 20.7269C244.191 19.1206 246.383 17.4767 248.583 15.8455C247.523 13.8694 246.46 11.8972 245.382 9.93359ZM241.961 12.3273C243.16 14.0997 244.214 15.9724 245.339 17.7966C244.198 18.5787 243.088 19.406 241.954 20.1942C241.972 17.5725 241.955 14.9491 241.961 12.3273ZM153.929 10.1945C154.826 11.011 155.579 11.9732 156.412 12.8555C157.317 11.9873 158.203 11.094 159.077 10.1929C159.714 10.6004 160.376 11.1724 161.193 11.0078C161.768 10.9687 162.067 10.4045 162.556 10.1741C162.558 11.373 162.282 12.6329 161.489 13.5638C160.58 14.6514 158.861 14.9695 157.645 14.2235C157.178 13.9963 156.868 13.5607 156.432 13.2927C156.443 16.5711 156.438 19.8479 156.435 23.1263C157.081 23.6231 157.728 24.1183 158.393 24.5915C158.875 24.275 159.246 23.692 159.856 23.6372C158.424 25.0005 156.923 26.2981 155.429 27.5972C154.307 26.5394 153.16 25.5083 152.05 24.4381C151.618 24.8266 151.218 25.2499 150.806 25.6589C150.74 25.5821 150.609 25.4299 150.543 25.3533C151.087 24.7484 151.693 24.203 152.249 23.6091C152.229 20.804 152.26 17.9989 152.235 15.1953C151.938 14.487 151.42 13.8727 151.046 13.1957C150.533 13.4981 150.161 14.1281 149.523 14.1501C150.972 12.81 152.488 11.5422 153.929 10.1945ZM212.08 13.7017C213.413 12.5342 214.719 11.3369 216.06 10.1788C217.023 11.2398 218.018 12.2709 218.963 13.3475C220.379 12.3242 221.74 11.2241 223.142 10.1788C224.125 11.2319 225.088 12.3023 226.08 13.3475C227.47 12.2944 228.843 11.2194 230.243 10.1804C231.199 11.246 232.184 12.285 233.152 13.3413C233.744 12.9636 234.288 12.5107 234.891 12.1487C234.936 12.4997 234.617 12.6596 234.394 12.8539C234.071 13.114 233.758 13.3867 233.435 13.6453C233.408 16.5632 233.441 19.4812 233.418 22.399C233.974 22.9762 234.542 23.5426 235.12 24.0977C235.425 23.7798 235.739 23.4678 236.037 23.1418C236.126 23.1982 236.306 23.3095 236.395 23.3659C234.933 24.8061 233.426 26.2025 231.925 27.6018C230.867 26.3528 229.757 25.1446 228.724 23.8736C228.975 23.6433 229.22 23.4035 229.461 23.1623C229.464 20.6454 229.461 18.1286 229.461 15.6134C228.662 14.7219 227.866 13.8269 227.042 12.9589C226.803 13.2018 226.565 13.4431 226.33 13.6874C226.327 16.8342 226.342 19.9809 226.322 23.1277C226.719 23.5728 227.165 23.9708 227.568 24.4143C226.485 25.3749 225.441 26.381 224.365 27.351C223.359 26.2933 222.369 25.2208 221.395 24.1338C221.673 23.7921 222.229 23.5445 222.141 23.0243C222.129 20.5702 222.154 18.1145 222.129 15.6622C221.458 14.7282 220.706 13.8239 219.928 12.9714C219.701 13.2128 219.471 13.4494 219.239 13.686C219.245 16.7341 219.222 19.7836 219.25 22.8317C219.579 23.3925 220.069 23.8519 220.478 24.3579C219.427 25.4628 218.341 26.5362 217.246 27.5971C216.199 26.3498 215.114 25.1353 214.06 23.8957C214.389 23.6401 214.721 23.388 215.052 23.1326C215.042 20.5576 215.033 17.9815 215.056 15.4067C214.439 14.642 213.762 13.9274 213.113 13.1893C212.653 13.5309 212.247 13.9603 211.72 14.2016C211.694 13.9618 211.931 13.8474 212.08 13.7017Z" fill="#BDBFE7"/>
<path d="M202.804 13.9041C204.183 12.641 205.611 11.4265 207.004 10.1775C207.996 11.3058 208.96 12.4592 209.947 13.5922C210.46 13.191 210.919 12.7146 211.486 12.384C211.444 12.5642 211.395 12.7507 211.228 12.8525C210.803 13.2051 210.381 13.5593 209.953 13.9025C209.96 16.8252 209.941 19.7462 209.963 22.6689C210.521 23.2989 211.098 23.9163 211.618 24.5806C212.052 24.3159 212.414 23.9538 212.828 23.6593C212.916 23.7062 213.093 23.7988 213.18 23.8442C211.803 25.1355 210.374 26.3735 208.938 27.5973C207.984 26.4503 207.004 25.3219 206.028 24.1921C205.603 24.5776 205.249 25.0446 204.784 25.38C204.718 25.3189 204.587 25.1935 204.521 25.1308C204.934 24.739 205.325 24.3222 205.745 23.9336C205.778 21.2789 205.746 18.6211 205.76 15.9662C205.735 15.5964 205.855 15.1592 205.566 14.8646C205.055 14.2299 204.585 13.5623 204.041 12.9558C203.637 13.2835 203.252 13.6392 202.804 13.9041Z" fill="#BDBFE7"/>
</svg>
