<svg width="275" height="36" viewBox="0 0 275 36" fill="none" xmlns="http://www.w3.org/2000/svg">
<path d="M235.024 14.2139V35.8309H241.933V21.4196H267.202V35.8309H274.112V14.2139H235.024ZM241.143 7.20567H267.795C271.545 6.51472 274.211 3.15865 275 0H233.938C234.727 3.15865 237.491 6.41601 241.143 7.20567ZM213.999 35.8309C217.454 34.3503 219.329 31.7839 220.119 28.8227H189.026V0.0987078H182.017V35.8309H213.999ZM130.196 7.10696H154.873C158.624 6.02118 161.684 3.15865 162.473 0.0987078H123.385V21.2222H155.366V28.6253H130.295C126.346 29.7111 122.99 32.3762 121.312 35.8309H162.276V14.2139H130.295L130.196 7.10696ZM69.3918 7.20567H96.0429C99.7938 6.51472 102.558 3.15865 103.249 0H62.0874C62.8771 3.15865 65.6409 6.41601 69.3918 7.20567ZM69.3918 21.3209H96.0429C99.7938 20.6299 102.558 17.2739 103.249 14.1152H62.0874C62.8771 17.2739 65.6409 20.5312 69.3918 21.3209ZM69.3918 35.8309H96.0429C99.7938 35.14 102.558 31.7839 103.249 28.6253H62.0874C62.8771 31.7839 65.6409 35.14 69.3918 35.8309Z" fill="#BDBFE7"/>
<path d="M0 0.0987078C0.789663 3.25736 3.55348 6.41601 7.20567 7.20567H18.4584L19.0506 7.40309V35.7322H26.0589V7.40309L26.6511 7.20567H37.9038C41.6547 6.21859 44.3198 3.25736 45.1095 0.0987078V0L0 0.0987078Z" fill="#BDBFE7"/>
</svg>
