<svg width="23" height="19" viewBox="0 0 23 19" fill="none" xmlns="http://www.w3.org/2000/svg">
<path d="M23 2.2513C22.1372 2.6384 21.2244 2.89343 20.2903 3.00833C21.272 2.41477 22.0102 1.47179 22.3665 0.356257C21.4384 0.916652 20.4247 1.30985 19.3689 1.51901C18.9243 1.03785 18.3895 0.655063 17.7972 0.393933C17.2048 0.132803 16.5673 -0.00122081 15.9232 8.37898e-06C13.3156 8.37898e-06 11.2053 2.1474 11.2053 4.79452C11.2035 5.16273 11.2443 5.52984 11.327 5.88801C9.45716 5.79749 7.62619 5.30494 5.95124 4.44187C4.27629 3.57879 2.79425 2.36419 1.59994 0.875787C1.18094 1.60517 0.959355 2.43737 0.958333 3.28541C0.958333 4.94791 1.79831 6.41744 3.06667 7.27837C2.3152 7.25996 1.57914 7.05458 0.920958 6.67968V6.73905C0.920958 9.06456 2.55013 10.9992 4.70638 11.4396C4.3009 11.5512 3.88306 11.6077 3.46342 11.6078C3.16565 11.6083 2.86856 11.5785 2.57648 11.5187C3.17592 13.4237 4.92056 14.8091 6.98721 14.8487C5.30791 16.1851 3.24617 16.9074 1.12604 16.902C0.749713 16.9015 0.373733 16.8783 0 16.8328C2.15682 18.2549 4.66394 19.0071 7.22296 19C15.9131 19 20.6607 11.6919 20.6607 5.35364C20.6607 5.14583 20.6554 4.93801 20.6459 4.73515C21.5673 4.05831 22.3645 3.21719 23 2.2513Z" fill="white"/>
</svg>
