<svg width="162" height="39" viewBox="0 0 162 39" fill="none" xmlns="http://www.w3.org/2000/svg">
<path d="M32.6219 32.141C32.6219 34.6602 30.5193 36.7051 28.936 36.7051H11.0321L33.5513 0.730713H3.44236V6.69225H4.98724C4.98724 4.17302 6.61544 2.13456 8.20519 2.13456H23.6731L1.01929 38.1025H33.686V32.141H32.6219Z" fill="#BDBFE7"/>
<path d="M71.6923 35.1923L54.2692 0.730713L38.3013 35.2179C38.0192 35.9743 36.4808 36.9294 34.3013 36.9294V38.0961H42.8013V36.9294C41.2243 36.9294 39.532 36.1474 39.9423 35.2115L43.782 26.8846H58.5128L62.6987 35.1923C63.1731 36.032 61.0513 36.9358 58.8654 36.9358V38.1025H76.5577L76.5641 36.9358C73.8846 36.9294 72.25 36.0961 71.6923 35.1923ZM44.4231 25.5384L50.7949 11.5512L57.9103 25.5384H44.4231Z" fill="#BDBFE7"/>
<path d="M78.5898 2.17302C81.1796 2.17302 83.3206 2.83969 83.3206 3.64738C83.3206 10.0576 83.3078 35.1538 83.3206 35.1538C83.3206 36.0128 81.2116 36.9679 78.6155 36.9679L78.6091 38.0961H95.9296V37.0448C93.3591 37.0448 91.2757 36.0192 91.2757 35.1602V1.85892H96.2693C101.077 1.85892 104.974 5.85251 104.974 10.3846C104.974 14.9166 101.077 18.5961 96.2629 18.5961H92.8078C92.8078 18.5961 104.513 36.3205 104.532 36.3205C104.994 36.9935 105.224 38.1025 105.224 38.1025H117.846V37.0512C115.417 37.0512 114.148 36.0448 113.442 35.1602L102.173 20.4551C107.583 20.0961 111.769 15.7243 111.769 10.532C111.769 5.10892 107.109 0.730713 101.359 0.730713H78.5898V2.17302Z" fill="#BDBFE7"/>
<path d="M156.41 35.1923L138.987 0.730713L123.019 35.2179C122.737 35.9743 121.205 36.9679 119.019 36.9679V38.0961H127.519V37.0448C125.942 37.0448 124.256 36.1474 124.66 35.2115L128.5 26.8846H143.231L147.417 35.1923C147.897 36.032 145.769 36.9743 143.583 36.9743V38.1025H161.276L161.282 37.0128C158.603 37.0128 156.968 36.0961 156.41 35.1923ZM129.135 25.5384L135.506 11.5512L142.622 25.5384H129.135Z" fill="#BDBFE7"/>
</svg>
